<svg width="1569" height="487" viewBox="0 0 1569 487" fill="none" xmlns="http://www.w3.org/2000/svg">
<path d="M1059.5 87.6857V436.171H996.086V87.6857H904.639V24.2695H1149.42V87.6857H1059.5Z" fill="black"/>
<path d="M239.687 407.221C216.404 428.82 187.3 439.389 153.6 439.389C79.3081 439.389 42.3917 400.942 14.9727 336.759L73.1809 309.647C89.1115 349.931 104.736 375.36 153.447 375.36C185.308 375.36 211.196 355.754 211.196 322.36C211.196 300.301 200.014 279.929 173.054 261.24L90.6435 211.916C57.7098 189.554 38.5623 160.45 38.5623 125.372C38.5623 94.737 49.438 69.1551 71.8023 49.8529C92.788 31.0142 118.675 22.1279 148.699 22.1279C207.06 22.1279 235.245 52.6094 260.979 99.9432L204.303 127.822C190.823 104.386 179.641 85.5441 148.699 85.5441C133.381 85.5441 122.658 89.2206 114.846 95.6535C106.88 102.546 102.591 111.739 102.591 125.372C102.591 134.101 110.557 148.194 140.273 167.189C190.21 198.744 219.008 217.433 224.369 221.723C257.15 249.447 274.765 283.299 274.765 322.36C274.765 356.521 263.277 385.316 239.687 407.221Z" fill="black"/>
<path d="M709.768 436.171V24.2695H773.187V372.295H868.311V436.171H709.768Z" fill="black"/>
<path fill-rule="evenodd" clip-rule="evenodd" d="M1492.56 379.646C1456.41 420.543 1410.76 441.375 1356.84 441.375C1303.08 441.375 1257.58 420.543 1221.13 379.646C1184.98 338.592 1167.21 288.501 1167.21 230.448C1167.21 121.995 1241.35 19.9775 1356.69 19.9775C1472.34 19.9775 1546.79 121.538 1546.79 230.448C1546.79 288.501 1528.71 338.592 1492.56 379.646ZM1448.75 124.601C1424.55 97.0261 1394.22 83.3937 1356.84 83.3937C1274.89 83.3937 1227.41 154.316 1227.41 230.448C1227.41 306.577 1274.74 377.499 1356.84 377.499C1394.22 377.499 1424.55 363.867 1448.75 336.295C1473.41 308.57 1486.13 273.646 1486.13 230.448C1486.13 187.404 1473.41 152.48 1448.75 124.601Z" fill="black"/>
<path d="M592.917 436.168L484.62 162.128L376.934 436.168H310.762L484.62 20.7437L659.093 436.168H592.917Z" fill="#0092CF"/>
<path d="M435.777 350.233L485.254 478.139L534.118 350.233H435.777Z" fill="#0092CF"/>
</svg>
